<?xml version="1.0" encoding="UTF-8" standalone="no"?>
<svg
   xmlns:dc="http://purl.org/dc/elements/1.1/"
   xmlns:cc="http://creativecommons.org/ns#"
   xmlns:rdf="http://www.w3.org/1999/02/22-rdf-syntax-ns#"
   xmlns:svg="http://www.w3.org/2000/svg"
   xmlns="http://www.w3.org/2000/svg"
   xmlns:sodipodi="http://sodipodi.sourceforge.net/DTD/sodipodi-0.dtd"
   xmlns:inkscape="http://www.inkscape.org/namespaces/inkscape"
   viewBox="0 0 128 128"
   x="0px"
   y="0px"
   version="1.1"
   id="svg4600"
   sodipodi:docname="working_logo.svg"
   width="128"
   height="128"
   inkscape:version="0.92.4 5da689c313, 2019-01-14"
   inkscape:export-filename="/home/kenton/Documents/projects/tmp/chubster/working_logo.png"
   inkscape:export-xdpi="768"
   inkscape:export-ydpi="768">
  <metadata
     id="metadata4606">
    <rdf:RDF>
      <cc:Work
         rdf:about="">
        <dc:format>image/svg+xml</dc:format>
        <dc:type
           rdf:resource="http://purl.org/dc/dcmitype/StillImage" />
        <dc:title></dc:title>
      </cc:Work>
    </rdf:RDF>
  </metadata>
  <defs
     id="defs4604" />
  <sodipodi:namedview
     pagecolor="#ffffff"
     bordercolor="#666666"
     borderopacity="1"
     objecttolerance="10"
     gridtolerance="10"
     guidetolerance="10"
     inkscape:pageopacity="0"
     inkscape:pageshadow="2"
     inkscape:window-width="3840"
     inkscape:window-height="2139"
     id="namedview4602"
     showgrid="false"
     inkscape:zoom="6.075"
     inkscape:cx="-15.195893"
     inkscape:cy="93.382523"
     inkscape:window-x="0"
     inkscape:window-y="21"
     inkscape:window-maximized="0"
     inkscape:current-layer="g4594" />
  <g
     id="g4594"
     style="fill:#000000;fill-opacity:1"
     transform="translate(0,-32)">
    <rect
       style="fill:#4caf50;fill-opacity:1;stroke:none;stroke-width:0.99885404;stroke-linecap:butt;stroke-linejoin:miter;stroke-opacity:1;paint-order:normal"
       id="rect4627"
       width="128"
       height="128"
       x="0"
       y="32" />
    <g
       id="g4614"
       transform="matrix(0.68896136,0,0,0.68896136,19.906778,51.916786)"
       style="fill:#ffffff;fill-opacity:1">
      <path
         inkscape:connector-curvature="0"
         style="fill:#ffffff;fill-opacity:1"
         id="path4582"
         d="M 5.868,53.767 C 2.5,62.01 4.117,71.341 7.284,79.373 a 70.919,70.919 0 0 0 14.407,22.574 3.2,3.2 0 0 0 0.8,0.607 2.88,2.88 0 0 0 0.477,1.748 28.716,28.716 0 0 0 1.884,2.293 23.775,23.775 0 0 0 2.016,1.873 46.226,46.226 0 0 0 5.653,4.048 57.753,57.753 0 0 0 11.479,5.406 47.523,47.523 0 0 0 12.409,2.225 63.064,63.064 0 0 0 13.543,-0.78 64.118,64.118 0 0 0 12.856,-3.419 59.815,59.815 0 0 0 11.812,-5.948 45.99,45.99 0 0 0 8.411,-7.079 45.375,45.375 0 0 0 5.9,-7.994 49.84,49.84 0 0 0 6.139,-18.159 58.794,58.794 0 0 0 0.55,-9.992 61,61 0 0 0 -1.208,-9.959 54.8,54.8 0 0 0 -2.536,-8.724 2.6,2.6 0 0 0 0.947,-0.4 32.944,32.944 0 0 0 4.324,-3.541 25.769,25.769 0 0 0 3.316,-4.145 23.479,23.479 0 0 0 2.252,-4.65 22.813,22.813 0 0 0 1.183,-5.526 20.681,20.681 0 0 0 -0.092,-4.891 28.151,28.151 0 0 0 -1.4,-6.007 c -0.347,-0.986 -0.775,-1.944 -1.2,-2.9 A 14.138,14.138 0 0 0 120.175,14.092 11.244,11.244 0 0 0 116.867,10.847 10.534,10.534 0 0 0 114.926,9.921 10.89,10.89 0 0 0 113.391,9.447 15.073,15.073 0 0 0 110,9.089 c -0.328,0 -0.653,0.008 -0.978,0.025 a 27.622,27.622 0 0 0 -8.532,2 43.893,43.893 0 0 0 -7.978,4.08 c -1.151,0.747 -2.242,1.581 -3.311,2.436 a 18.591,18.591 0 0 0 -2.36,2.231 4.89,4.89 0 0 0 -0.461,0.616 c -0.337,-0.144 -0.672,-0.294 -1.012,-0.432 a 45.729,45.729 0 0 0 -10.961,-2.769 67.576,67.576 0 0 0 -9.383,-0.65 70.049,70.049 0 0 0 -19.112,2.669 c -1.349,0.383 -2.683,0.833 -4.007,1.313 A 77.178,77.178 0 0 0 35.52,14.422 34.935,34.935 0 0 0 31.592,11.575 26.177,26.177 0 0 0 26.668,9.29 24.293,24.293 0 0 0 21.516,8.177 C 20.203,8.009 18.89,7.855 17.567,7.777 17.236,7.758 16.901,7.75 16.567,7.75 a 11.044,11.044 0 0 0 -5.9,1.473 10.957,10.957 0 0 0 -4.217,6.063 27.891,27.891 0 0 0 -0.988,4.35 52.23,52.23 0 0 0 -0.628,5.864 49.607,49.607 0 0 0 0.691,10.531 38.037,38.037 0 0 0 3.275,10.256 2.5,2.5 0 0 0 0.52,0.7 C 9.201,47.172 9.079,47.354 8.963,47.54 A 41.03,41.03 0 0 0 5.868,53.767 Z M 92.7,23.745 c 0.447,-0.425 0.945,-0.861 1.524,-1.329 a 40.159,40.159 0 0 1 7.788,-4.5 29.34,29.34 0 0 1 6.232,-1.811 c 0.6,-0.06 1.167,-0.089 1.719,-0.089 0.428,0 0.85,0.019 1.256,0.054 a 10.252,10.252 0 0 1 1.459,0.387 8.549,8.549 0 0 1 0.856,0.493 8.472,8.472 0 0 1 0.66,0.665 15.258,15.258 0 0 1 1.194,2.3 26.916,26.916 0 0 1 1.54,5.5 22.632,22.632 0 0 1 0.027,4.513 20.782,20.782 0 0 1 -1.1,4.044 21.362,21.362 0 0 1 -2.168,3.682 24.938,24.938 0 0 1 -3.476,3.433 c -0.3,0.216 -0.593,0.43 -0.89,0.636 -0.082,0.058 -0.162,0.116 -0.248,0.174 v 0 0 l -0.005,0.005 c -0.539,-1.023 -1.115,-2.035 -1.711,-3.012 a 50.9,50.9 0 0 0 -5.9,-7.8 45.793,45.793 0 0 0 -7.357,-6.397 c -0.433,-0.306 -0.869,-0.6 -1.313,-0.891 -0.026,-0.017 -0.054,-0.031 -0.08,-0.048 v 0 z m -35.931,0.312 a 69.431,69.431 0 0 1 8.4,-0.52 64.752,64.752 0 0 1 7.836,0.474 46.631,46.631 0 0 1 10.772,2.812 41.1,41.1 0 0 1 7.956,4.667 44.617,44.617 0 0 1 7.125,7.179 50.815,50.815 0 0 1 5.882,10.165 56.215,56.215 0 0 1 3.56,13.057 55.75,55.75 0 0 1 0.035,13.451 49.826,49.826 0 0 1 -3.1,11.535 44.187,44.187 0 0 1 -5.1,8.8 42.385,42.385 0 0 1 -6.67,6.679 54.211,54.211 0 0 1 -10.926,6.285 65.484,65.484 0 0 1 -15.4,4.191 c -0.106,0.013 -0.212,0.024 -0.314,0.038 l -0.055,0.008 a 61.866,61.866 0 0 1 -7.144,0.422 55.277,55.277 0 0 1 -6.507,-0.379 49.035,49.035 0 0 1 -5.29,-1.077 36.683,36.683 0 0 1 -4.6,-1.584 54.372,54.372 0 0 1 -10.807,-6.153 24.233,24.233 0 0 1 -3.662,-3.538 l -0.358,-0.463 a 3.607,3.607 0 0 0 -0.817,-0.609 3.584,3.584 0 0 0 -1,-2.447 C 25.258,95.645 23.951,94.123 22.697,92.532 A 70.883,70.883 0 0 1 14.213,78.149 47.027,47.027 0 0 1 11.144,67.459 30.066,30.066 0 0 1 11.07,60.932 26.162,26.162 0 0 1 12.593,55.5 43.248,43.248 0 0 1 17.731,46.986 72.189,72.189 0 0 1 29.6,35.291 59.161,59.161 0 0 1 41.568,28.128 64.4,64.4 0 0 1 56.772,24.057 Z M 12.054,22.045 a 27.226,27.226 0 0 1 1.3,-5.538 8.836,8.836 0 0 1 0.573,-1.024 c 0.109,-0.119 0.222,-0.232 0.341,-0.343 0.1,-0.065 0.209,-0.125 0.315,-0.185 a 8.475,8.475 0 0 1 0.923,-0.238 c 0.4,-0.03 0.8,-0.043 1.193,-0.043 a 32.807,32.807 0 0 1 4.085,0.326 23.167,23.167 0 0 1 4.944,1.305 25.745,25.745 0 0 1 4.485,2.683 52.8,52.8 0 0 1 4.464,4.112 c 0.148,0.15 0.291,0.3 0.438,0.455 -0.7,0.36 -1.4,0.738 -2.084,1.122 a 69.978,69.978 0 0 0 -10.541,7.528 70.713,70.713 0 0 0 -7.779,7.63 c -0.265,0.3 -0.516,0.622 -0.776,0.931 l -0.007,-0.019 -0.006,0.007 a 39.914,39.914 0 0 1 -1.89,-7.675 47.625,47.625 0 0 1 0.022,-11.034 z" />
      <path
         inkscape:connector-curvature="0"
         style="fill:#ffffff;fill-opacity:1"
         id="path4584"
         d="m 40.746,83.507 a 21.323,21.323 0 0 0 0.515,2.777 18.452,18.452 0 0 0 0.988,2.629 19.189,19.189 0 0 0 3.032,4.639 18.763,18.763 0 0 0 4.087,3.46 20.626,20.626 0 0 0 5.607,2.469 25.146,25.146 0 0 0 5.717,0.864 q 0.512,0.027 1.023,0.027 a 32.816,32.816 0 0 0 5.336,-0.523 30.165,30.165 0 0 0 9.913,-3.681 29.354,29.354 0 0 0 4.421,-3.219 24.962,24.962 0 0 0 3.882,-4.364 20.74,20.74 0 0 0 2.523,-4.856 11.391,11.391 0 0 0 0.549,-5.929 8.619,8.619 0 0 0 -0.733,-2.25 9.758,9.758 0 0 0 -1.541,-2.26 8.2,8.2 0 0 0 -1.673,-1.424 3.375,3.375 0 0 0 -1,-2.6 22.951,22.951 0 0 0 -9.645,-5.358 35.985,35.985 0 0 0 -5.74,-1.108 30.994,30.994 0 0 0 -3.969,-0.243 c -0.644,0 -1.3,0.016 -1.941,0.048 a 35.265,35.265 0 0 0 -5.725,0.788 25.44,25.44 0 0 0 -5.48,1.949 19.27,19.27 0 0 0 -4.336,3.027 18.738,18.738 0 0 0 -3.76,4.745 17.063,17.063 0 0 0 -2.05,10.393 z m 6.847,-3.346 a 15.158,15.158 0 0 1 0.714,-2.618 16.1,16.1 0 0 1 1.511,-2.572 18.91,18.91 0 0 1 2.366,-2.341 16.528,16.528 0 0 1 2.747,-1.565 25.861,25.861 0 0 1 5.3,-1.381 33.8,33.8 0 0 1 3.708,-0.2 35.968,35.968 0 0 1 4.009,0.23 29,29 0 0 1 6.252,1.662 19.3,19.3 0 0 1 2.279,1.213 3.487,3.487 0 0 0 0.352,2.658 3.591,3.591 0 0 0 2.069,1.589 q 0.292,0.09 0.58,0.2 a 10.712,10.712 0 0 1 1.191,0.666 c 0.17,0.154 0.333,0.314 0.493,0.485 0.092,0.146 0.181,0.3 0.262,0.449 0.062,0.192 0.114,0.385 0.16,0.582 a 8.421,8.421 0 0 1 -0.011,1 12.778,12.778 0 0 1 -0.525,1.841 19.884,19.884 0 0 1 -1.99,3.346 23.974,23.974 0 0 1 -3.316,3.278 27.757,27.757 0 0 1 -5.078,2.94 29.566,29.566 0 0 1 -6,1.649 26.557,26.557 0 0 1 -2.951,0.168 24.391,24.391 0 0 1 -2.656,-0.144 20.946,20.946 0 0 1 -4.039,-1.088 18.009,18.009 0 0 1 -2.934,-1.7 17.183,17.183 0 0 1 -2.2,-2.179 15.78,15.78 0 0 1 -1.516,-2.572 15.475,15.475 0 0 1 -0.777,-2.791 15.54,15.54 0 0 1 0,-2.805 z" />
      <circle
         style="fill:#ffffff;fill-opacity:1"
         id="circle4586"
         r="3.457"
         cy="81.589996"
         cx="57.487" />
      <circle
         style="fill:#ffffff;fill-opacity:1"
         id="circle4588"
         r="3.457"
         cy="80.973"
         cx="68.292999" />
      <circle
         style="fill:#ffffff;fill-opacity:1"
         id="circle4590"
         r="3.457"
         cy="54.110001"
         cx="38.345001" />
      <circle
         style="fill:#ffffff;fill-opacity:1"
         id="circle4592"
         r="3.457"
         cy="54.418999"
         cx="82.185997" />
    </g>
  </g>
</svg>
